# xmcd
#
# Track frame offsets:
#	150
#	5558
#	13540
#	24353
#	38169
#	51861
#	58290
#	86429
#	104105
#	121420
#	137447
#	152580
#	156395
#	160512
#	177359
#	185974
#	190218
#	196398
#	221573
#
# Disc length: 3308 seconds
#
# Revision: 0
# Processed by: cddbd v1.5.2PL0 Copyright (c) Steve Scherf et al.
# Submitted via: EZCDAudioConverter 1.3.4.1
#
DISCID=060cea13
DTITLE=Various Artist - inside deep throat
DYEAR=1900
DGENRE=
TTITLE0=david steinberg - titles
TTITLE1=chris joss - theme from deep throat
TTITLE2=melanie - brand new key
TTITLE3=tommy james - draggin' the line
TTITLE4=kool and the gang - jungle boogie
TTITLE5=david steinberg - the n.y. trial
TTITLE6=andrea true connection - more more more
TTITLE7=kc and the sunshine band - keep it coming love
TTITLE8=mocean worker - chick a boom boom boom
TTITLE9=chris joss - love is strange
TTITLE10=daniele luppi - fashion party
TTITLE11=david steinberg - the mob
TTITLE12=david steinberg - linda in playboy
TTITLE13=alice cooper - elected
TTITLE14=david steinberg - sex pod
TTITLE15=david steinberg - the memphis trial
TTITLE16=david steinberg - linda goes home
TTITLE17=supertramp - crime of the century
TTITLE18=chris joss - open mouth surgery (dr. young's groove)
EXTD=
EXTT0=
EXTT1=
EXTT2=
EXTT3=
EXTT4=
EXTT5=
EXTT6=
EXTT7=
EXTT8=
EXTT9=
EXTT10=
EXTT11=
EXTT12=
EXTT13=
EXTT14=
EXTT15=
EXTT16=
EXTT17=
EXTT18=
PLAYORDER=
